<svg width="1150" height="466" viewBox="0 0 1150 466" fill="none" xmlns="http://www.w3.org/2000/svg">
<path d="M797.937 66.2476C797.937 77.0142 787.17 86.2427 765.637 93.9331C744.104 101.404 718.176 105.139 687.854 105.139C648.303 105.139 599.854 99.0967 542.505 87.0117C514.6 100.195 488.892 120.3 465.381 147.327C442.09 174.133 416.711 212.805 389.246 263.342C402.869 265.54 414.185 267.297 423.193 268.616C435.498 240.271 453.076 226.099 475.928 226.099C491.528 226.099 499.329 232.141 499.329 244.226C499.329 253.894 494.055 261.804 483.508 267.957C473.181 273.889 459.558 276.855 442.639 276.855H436.047C435.388 277.734 432.642 283.557 427.808 294.324C422.314 307.068 414.404 317.944 404.077 326.953C393.75 335.742 384.082 340.137 375.073 340.137C371.997 340.137 370.459 339.478 370.459 338.159C370.459 337.061 371.558 336.182 373.755 335.522C388.916 330.908 404.297 310.583 419.897 274.548C413.525 273.889 404.297 272.571 392.212 270.593L385.95 269.275C382.874 274.768 378.369 282.898 372.437 293.665C353.54 327.502 338.159 351.672 326.294 366.174C314.648 380.676 298.828 394.958 278.833 409.021C225.659 446.375 170.728 465.051 114.038 465.051C80.6396 465.051 53.2837 458.13 31.9702 444.287C10.6567 430.225 0 412.207 0 390.234C0 379.248 3.18604 369.91 9.55811 362.219C16.1499 354.309 23.9502 350.354 32.959 350.354C47.4609 350.354 54.7119 357.715 54.7119 372.437C54.7119 379.248 52.4048 385.181 47.7905 390.234C43.396 395.068 38.0127 397.485 31.6406 397.485C20.874 397.485 15.4907 392.322 15.4907 381.995C16.1499 376.721 15.4907 374.084 13.5132 374.084C9.33838 374.084 7.25098 379.907 7.25098 391.553C7.25098 410.01 16.8091 425.83 35.9253 439.014C55.2612 451.978 78.5522 458.459 105.798 458.459C148.645 458.459 187.207 445.715 221.484 420.227C255.762 394.519 293.335 350.244 334.204 287.402C337.72 282.349 342.883 274.548 349.695 264.001H343.433C318.823 264.001 301.794 273.45 292.346 292.346C291.248 295.422 290.039 296.96 288.721 296.96C286.963 296.96 286.084 296.082 286.084 294.324C286.084 285.535 292.236 277.295 304.541 269.604C317.065 261.694 330.249 257.739 344.092 257.739H353.65C411.218 170.728 471.533 113.159 534.595 85.0342C517.676 81.2988 500.098 77.0142 481.86 72.1802C422.974 56.7993 377.271 49.1089 344.751 49.1089C338.159 49.1089 331.897 49.3286 325.964 49.7681C335.413 68.0054 340.137 88.5498 340.137 111.401C340.137 159.302 321.35 204.456 283.777 246.863C246.423 289.27 206.433 310.474 163.806 310.474C145.789 310.474 131.177 304.871 119.971 293.665C108.765 282.239 103.162 267.407 103.162 249.17C103.162 207.642 124.695 165.674 167.761 123.267C211.047 80.6396 259.277 53.7231 312.451 42.5171C295.752 17.688 270.154 5.27344 235.657 5.27344C179.187 5.27344 128.101 32.7393 82.3975 87.6709C78.6621 91.4062 76.5747 93.2739 76.1353 93.2739C74.8169 93.2739 73.938 92.5049 73.4985 90.9668C73.4985 87.0117 82.7271 76.4648 101.184 59.3262C143.811 19.7754 187.866 0 233.35 0C273.779 0 303.113 13.7329 321.35 41.1987C344.641 35.2661 371.777 32.2998 402.759 32.2998C422.314 32.2998 440.332 33.8379 456.812 36.9141C473.291 39.9902 512.952 48.999 575.793 63.9404C624.792 45.0439 670.715 35.5957 713.562 35.5957C738.831 35.5957 759.155 38.4521 774.536 44.165C790.137 49.6582 797.937 57.019 797.937 66.2476ZM791.675 66.9067C791.675 60.0952 784.424 54.2725 769.922 49.4385C755.64 44.3848 738.391 41.8579 718.176 41.8579C670.276 41.8579 626.331 50.2075 586.34 66.9067L630.505 76.7944C667.419 85.3638 701.367 89.6484 732.349 89.6484C748.169 89.6484 762.012 87.3413 773.877 82.7271C785.742 78.1128 791.675 72.8394 791.675 66.9067ZM493.396 244.885C493.396 235.437 488.013 230.713 477.246 230.713C462.964 230.713 450.769 242.029 440.662 264.661L438.025 270.593H446.265C459.888 270.593 471.094 268.176 479.883 263.342C488.892 258.508 493.396 252.356 493.396 244.885ZM327.942 95.9106C327.942 81.189 324.316 66.3574 317.065 51.416C266.528 57.7881 219.177 81.958 175.012 123.926C130.847 165.674 108.765 207.202 108.765 248.511C108.765 263.892 113.599 276.965 123.267 287.732C133.154 298.499 145.349 303.882 159.851 303.882C198.083 303.882 235.657 281.03 272.571 235.327C309.485 189.404 327.942 142.932 327.942 95.9106ZM504.707 439.251H516.335V450.879H504.707V439.251ZM516.335 439.251H527.963V450.879H516.335V439.251ZM493.08 427.623H504.707V439.251H493.08V427.623ZM504.707 427.623H516.335V439.251H504.707V427.623ZM516.335 427.623H527.963V439.251H516.335V427.623ZM527.963 427.623H539.591V439.251H527.963V427.623ZM481.452 415.995H493.08V427.623H481.452V415.995ZM493.08 415.995H504.707V427.623H493.08V415.995ZM493.08 404.367H504.707V415.995H493.08V404.367ZM504.707 404.367H516.335V415.995H504.707V404.367ZM504.707 415.995H516.335V427.623H504.707V415.995ZM516.335 415.995H527.963V427.623H516.335V415.995ZM527.963 415.995H539.591V427.623H527.963V415.995ZM527.963 404.367H539.591V415.995H527.963V404.367ZM539.591 415.995H551.219V427.623H539.591V415.995ZM516.335 404.367H527.963V415.995H516.335V404.367ZM504.707 392.739H516.335V404.367H504.707V392.739ZM516.335 392.739H527.963V404.367H516.335V392.739ZM527.963 392.739H539.591V404.367H527.963V392.739ZM527.963 381.111H539.591V392.739H527.963V381.111ZM516.335 381.111H527.963V392.739H516.335V381.111ZM504.707 381.111H516.335V392.739H504.707V381.111ZM504.707 369.484H516.335V381.111H504.707V369.484ZM504.707 357.856H516.335V369.484H504.707V357.856ZM504.707 346.228H516.335V357.856H504.707V346.228ZM504.707 334.6H516.335V346.228H504.707V334.6ZM504.707 322.972H516.335V334.6H504.707V322.972ZM516.335 322.972H527.963V334.6H516.335V322.972ZM527.963 322.972H539.591V334.6H527.963V322.972ZM527.963 334.6H539.591V346.228H527.963V334.6ZM527.963 346.228H539.591V357.856H527.963V346.228ZM527.963 357.856H539.591V369.484H527.963V357.856ZM516.335 357.856H527.963V369.484H516.335V357.856ZM516.335 369.484H527.963V381.111H516.335V369.484ZM516.335 346.228H527.963V357.856H516.335V346.228ZM516.335 334.6H527.963V346.228H516.335V334.6ZM527.963 369.484H539.591V381.111H527.963V369.484ZM527.963 311.344H539.591V322.972H527.963V311.344ZM527.963 299.716H539.591V311.344H527.963V299.716ZM527.963 288.088H539.591V299.716H527.963V288.088ZM527.963 276.46H539.591V288.088H527.963V276.46ZM527.963 264.832H539.591V276.46H527.963V264.832ZM527.963 253.204H539.591V264.832H527.963V253.204ZM527.963 229.949H539.591V241.577H527.963V229.949ZM527.963 218.321H539.591V229.949H527.963V218.321ZM527.963 206.693H539.591V218.321H527.963V206.693ZM527.963 195.065H539.591V206.693H527.963V195.065ZM527.963 183.437H539.591V195.065H527.963V183.437ZM527.963 171.809H539.591V183.437H527.963V171.809ZM527.963 160.181H539.591V171.809H527.963V160.181ZM504.707 183.437H516.335V195.065H504.707V183.437ZM504.707 195.065H516.335V206.693H504.707V195.065ZM504.707 206.693H516.335V218.321H504.707V206.693ZM504.707 218.321H516.335V229.949H504.707V218.321ZM504.707 229.949H516.335V241.577H504.707V229.949ZM504.707 253.204H516.335V264.832H504.707V253.204ZM504.707 264.832H516.335V276.46H504.707V264.832ZM516.335 276.46H527.963V288.088H516.335V276.46ZM516.335 288.088H527.963V299.716H516.335V288.088ZM516.335 299.716H527.963V311.344H516.335V299.716ZM516.335 311.344H527.963V322.972H516.335V311.344ZM504.707 311.344H516.335V322.972H504.707V311.344ZM504.707 299.716H516.335V311.344H504.707V299.716ZM504.707 288.088H516.335V299.716H504.707V288.088ZM504.707 276.46H516.335V288.088H504.707V276.46ZM516.335 264.832H527.963V276.46H516.335V264.832ZM516.335 253.204H527.963V264.832H516.335V253.204ZM516.335 229.949H527.963V241.577H516.335V229.949ZM516.335 218.321H527.963V229.949H516.335V218.321ZM516.335 206.693H527.963V218.321H516.335V206.693ZM516.335 195.065H527.963V206.693H516.335V195.065ZM516.335 183.437H527.963V195.065H516.335V183.437ZM516.335 171.809H527.963V183.437H516.335V171.809ZM493.08 392.739H504.707V404.367H493.08V392.739ZM493.08 381.111H504.707V392.739H493.08V381.111ZM493.08 369.484H504.707V381.111H493.08V369.484ZM493.08 357.856H504.707V369.484H493.08V357.856ZM493.08 346.228H504.707V357.856H493.08V346.228ZM493.08 334.6H504.707V346.228H493.08V334.6ZM493.08 322.972H504.707V334.6H493.08V322.972ZM493.08 311.344H504.707V322.972H493.08V311.344ZM493.08 299.716H504.707V311.344H493.08V299.716ZM493.08 288.088H504.707V299.716H493.08V288.088ZM493.08 264.832H504.707V276.46H493.08V264.832ZM493.08 229.949H504.707V241.577H493.08V229.949ZM493.08 218.321H504.707V229.949H493.08V218.321ZM493.08 206.693H504.707V218.321H493.08V206.693ZM493.08 253.204H504.707V264.832H493.08V253.204ZM493.08 276.46H504.707V288.088H493.08V276.46ZM493.08 195.065H504.707V206.693H493.08V195.065ZM493.08 241.577H504.707V253.204H493.08V241.577ZM504.707 241.577H516.335V253.204H504.707V241.577ZM516.335 241.577H527.963V253.204H516.335V241.577ZM527.963 241.577H539.591V253.204H527.963V241.577ZM551.219 404.367H562.847V415.995H551.219V404.367ZM469.824 404.367H481.452V415.995H469.824V404.367ZM481.452 404.367H493.08V415.995H481.452V404.367ZM539.591 404.367H551.219V415.995H539.591V404.367ZM493.08 439.251H504.707V450.879H493.08V439.251ZM469.824 415.995H481.452V427.623H469.824V415.995ZM595.918 299.716H607.546V311.344H595.918V299.716ZM607.546 299.716H619.174V311.344H607.546V299.716ZM607.546 311.344H619.174V322.972H607.546V311.344ZM619.174 299.716H630.802V311.344H619.174V299.716ZM584.29 299.716H595.918V311.344H584.29V299.716ZM584.29 311.344H595.918V322.972H584.29V311.344ZM584.29 334.6H595.918V346.228H584.29V334.6ZM584.29 346.228H595.918V357.856H584.29V346.228ZM584.29 357.856H595.918V369.484H584.29V357.856ZM584.29 369.484H595.918V381.111H584.29V369.484ZM584.29 381.111H595.918V392.739H584.29V381.111ZM584.29 392.739H595.918V404.367H584.29V392.739ZM595.918 392.739H607.546V404.367H595.918V392.739ZM607.546 392.739H619.174V404.367H607.546V392.739ZM607.546 381.111H619.174V392.739H607.546V381.111ZM619.174 381.111H630.802V392.739H619.174V381.111ZM619.174 369.484H630.802V381.111H619.174V369.484ZM619.174 346.228H630.802V357.856H619.174V346.228ZM619.174 334.6H630.802V346.228H619.174V334.6ZM619.174 322.972H630.802V334.6H619.174V322.972ZM619.174 311.344H630.802V322.972H619.174V311.344ZM607.546 322.972H619.174V334.6H607.546V322.972ZM607.546 334.6H619.174V346.228H607.546V334.6ZM607.546 346.228H619.174V357.856H607.546V346.228ZM607.546 357.856H619.174V369.484H607.546V357.856ZM607.546 369.484H619.174V381.111H607.546V369.484ZM619.174 357.856H630.802V369.484H619.174V357.856ZM595.918 357.856H607.546V369.484H595.918V357.856ZM595.918 346.228H607.546V357.856H595.918V346.228ZM595.918 334.6H607.546V346.228H595.918V334.6ZM595.918 322.972H607.546V334.6H595.918V322.972ZM595.918 311.344H607.546V322.972H595.918V311.344ZM584.29 322.972H595.918V334.6H584.29V322.972ZM595.918 369.484H607.546V381.111H595.918V369.484ZM595.918 381.111H607.546V392.739H595.918V381.111ZM572.663 415.995H584.29V427.623H572.663V415.995ZM561.035 415.995H572.663V427.623H561.035V415.995ZM561.035 404.367H572.663V415.995H561.035V404.367ZM572.663 404.367H584.29V415.995H572.663V404.367ZM584.29 404.367H595.918V415.995H584.29V404.367ZM584.29 415.995H595.918V427.623H584.29V415.995ZM595.918 415.995H607.546V427.623H595.918V415.995ZM607.546 415.995H619.174V427.623H607.546V415.995ZM619.174 415.995H630.802V427.623H619.174V415.995ZM619.174 404.367H630.802V415.995H619.174V404.367ZM619.174 392.739H630.802V404.367H619.174V392.739ZM607.546 404.367H619.174V415.995H607.546V404.367ZM595.918 404.367H607.546V415.995H595.918V404.367ZM607.546 427.623H619.174V439.251H607.546V427.623ZM607.546 439.251H619.174V450.879H607.546V439.251ZM619.174 439.251H630.802V450.879H619.174V439.251ZM619.174 427.623H630.802V439.251H619.174V427.623ZM630.802 415.995H642.43V427.623H630.802V415.995ZM630.802 404.367H642.43V415.995H630.802V404.367ZM642.43 404.367H654.058V415.995H642.43V404.367ZM642.43 415.995H654.058V427.623H642.43V415.995ZM642.43 427.623H654.058V439.251H642.43V427.623ZM642.43 439.251H654.058V450.879H642.43V439.251ZM630.802 439.251H642.43V450.879H630.802V439.251ZM630.802 427.623H642.43V439.251H630.802V427.623ZM654.058 404.367H665.686V415.995H654.058V404.367ZM665.686 404.367H677.314V415.995H665.686V404.367ZM665.686 415.995H677.314V427.623H665.686V415.995ZM654.058 415.995H665.686V427.623H654.058V415.995ZM677.314 404.367H688.942V415.995H677.314V404.367ZM688.942 404.367H700.57V415.995H688.942V404.367ZM677.314 415.995H688.942V427.623H677.314V415.995ZM677.314 392.739H688.942V404.367H677.314V392.739ZM677.314 381.111H688.942V392.739H677.314V381.111ZM688.942 381.111H700.57V392.739H688.942V381.111ZM688.942 392.739H700.57V404.367H688.942V392.739ZM700.57 381.111H712.197V392.739H700.57V381.111ZM712.197 369.484H723.825V381.111H712.197V369.484ZM712.197 357.856H723.825V369.484H712.197V357.856ZM712.197 346.228H723.825V357.856H712.197V346.228ZM700.57 346.228H712.197V357.856H700.57V346.228ZM688.942 346.228H700.57V357.856H688.942V346.228ZM688.942 357.856H700.57V369.484H688.942V357.856ZM677.314 357.856H688.942V369.484H677.314V357.856ZM677.314 369.484H688.942V381.111H677.314V369.484ZM688.942 369.484H700.57V381.111H688.942V369.484ZM700.57 369.484H712.197V381.111H700.57V369.484ZM700.57 357.856H712.197V369.484H700.57V357.856ZM677.314 346.228H688.942V357.856H677.314V346.228ZM677.314 334.6H688.942V346.228H677.314V334.6ZM688.942 334.6H700.57V346.228H688.942V334.6ZM688.942 322.972H700.57V334.6H688.942V322.972ZM700.57 322.972H712.197V334.6H700.57V322.972ZM712.197 322.972H723.825V334.6H712.197V322.972ZM712.197 334.6H723.825V346.228H712.197V334.6ZM700.57 334.6H712.197V346.228H700.57V334.6ZM677.314 322.972H688.942V334.6H677.314V322.972ZM677.314 311.344H688.942V322.972H677.314V311.344ZM688.942 311.344H700.57V322.972H688.942V311.344ZM688.942 299.716H700.57V311.344H688.942V299.716ZM700.57 299.716H712.197V311.344H700.57V299.716ZM712.197 299.716H723.825V311.344H712.197V299.716ZM712.197 311.344H723.825V322.972H712.197V311.344ZM700.57 311.344H712.197V322.972H700.57V311.344ZM677.314 299.716H688.942V311.344H677.314V299.716ZM630.802 253.204H642.43V264.832H630.802V253.204ZM630.802 264.832H642.43V276.46H630.802V264.832ZM642.43 264.832H654.058V276.46H642.43V264.832ZM642.43 253.204H654.058V264.832H642.43V253.204ZM619.174 276.46H630.802V288.088H619.174V276.46ZM607.546 276.46H619.174V288.088H607.546V276.46ZM619.174 288.088H630.802V299.716H619.174V288.088ZM607.546 288.088H619.174V299.716H607.546V288.088ZM654.058 276.46H665.686V288.088H654.058V276.46ZM665.686 288.088H677.314V299.716H665.686V288.088ZM665.686 276.46H677.314V288.088H665.686V276.46ZM654.058 253.204H665.686V264.832H654.058V253.204ZM665.686 253.204H677.314V264.832H665.686V253.204ZM665.686 264.832H677.314V276.46H665.686V264.832ZM654.058 264.832H665.686V276.46H654.058V264.832ZM677.314 253.204H688.942V264.832H677.314V253.204ZM688.942 253.204H700.57V264.832H688.942V253.204ZM688.942 264.832H700.57V276.46H688.942V264.832ZM677.314 264.832H688.942V276.46H677.314V264.832ZM723.825 288.088H735.453V299.716H723.825V288.088ZM723.825 276.46H735.453V288.088H723.825V276.46ZM735.453 276.46H747.081V288.088H735.453V276.46ZM735.453 288.088H747.081V299.716H735.453V288.088ZM712.197 276.46H723.825V288.088H712.197V276.46ZM700.57 276.46H712.197V288.088H700.57V276.46ZM688.942 276.46H700.57V288.088H688.942V276.46ZM677.314 276.46H688.942V288.088H677.314V276.46ZM688.942 288.088H700.57V299.716H688.942V288.088ZM700.57 288.088H712.197V299.716H700.57V288.088ZM712.197 288.088H723.825V299.716H712.197V288.088ZM677.314 288.088H688.942V299.716H677.314V288.088ZM595.918 427.623H607.546V439.251H595.918V427.623ZM700.57 264.832H712.197V276.46H700.57V264.832ZM595.918 288.088H607.546V299.716H595.918V288.088ZM654.058 427.623H665.686V439.251H654.058V427.623ZM700.57 392.739H712.197V404.367H700.57V392.739ZM712.197 381.111H723.825V392.739H712.197V381.111ZM665.686 427.623H677.314V439.251H665.686V427.623ZM654.058 439.251H665.686V450.879H654.058V439.251ZM619.174 264.832H630.802V276.46H619.174V264.832ZM780.391 439.251H792.019V450.879H780.391V439.251ZM792.019 439.251H803.647V450.879H792.019V439.251ZM768.763 427.623H780.391V439.251H768.763V427.623ZM780.391 427.623H792.019V439.251H780.391V427.623ZM792.019 427.623H803.647V439.251H792.019V427.623ZM803.647 427.623H815.275V439.251H803.647V427.623ZM757.135 415.995H768.763V427.623H757.135V415.995ZM768.763 415.995H780.391V427.623H768.763V415.995ZM768.763 404.367H780.391V415.995H768.763V404.367ZM780.391 404.367H792.019V415.995H780.391V404.367ZM780.391 415.995H792.019V427.623H780.391V415.995ZM792.019 415.995H803.647V427.623H792.019V415.995ZM803.647 415.995H815.275V427.623H803.647V415.995ZM803.647 404.367H815.275V415.995H803.647V404.367ZM815.275 415.995H826.903V427.623H815.275V415.995ZM792.019 404.367H803.647V415.995H792.019V404.367ZM780.391 392.739H792.019V404.367H780.391V392.739ZM792.019 392.739H803.647V404.367H792.019V392.739ZM803.647 392.739H815.275V404.367H803.647V392.739ZM803.647 381.111H815.275V392.739H803.647V381.111ZM792.019 381.111H803.647V392.739H792.019V381.111ZM780.391 381.111H792.019V392.739H780.391V381.111ZM780.391 369.484H792.019V381.111H780.391V369.484ZM780.391 357.856H792.019V369.484H780.391V357.856ZM780.391 346.228H792.019V357.856H780.391V346.228ZM780.391 334.6H792.019V346.228H780.391V334.6ZM780.391 322.972H792.019V334.6H780.391V322.972ZM792.019 322.972H803.647V334.6H792.019V322.972ZM803.647 322.972H815.275V334.6H803.647V322.972ZM803.647 334.6H815.275V346.228H803.647V334.6ZM803.647 346.228H815.275V357.856H803.647V346.228ZM803.647 357.856H815.275V369.484H803.647V357.856ZM792.019 357.856H803.647V369.484H792.019V357.856ZM792.019 369.484H803.647V381.111H792.019V369.484ZM792.019 346.228H803.647V357.856H792.019V346.228ZM792.019 334.6H803.647V346.228H792.019V334.6ZM803.647 369.484H815.275V381.111H803.647V369.484ZM803.647 311.344H815.275V322.972H803.647V311.344ZM803.647 299.716H815.275V311.344H803.647V299.716ZM803.647 288.088H815.275V299.716H803.647V288.088ZM803.647 276.46H815.275V288.088H803.647V276.46ZM780.391 264.832H792.019V276.46H780.391V264.832ZM792.019 276.46H803.647V288.088H792.019V276.46ZM792.019 288.088H803.647V299.716H792.019V288.088ZM792.019 299.716H803.647V311.344H792.019V299.716ZM792.019 311.344H803.647V322.972H792.019V311.344ZM780.391 311.344H792.019V322.972H780.391V311.344ZM780.391 299.716H792.019V311.344H780.391V299.716ZM780.391 288.088H792.019V299.716H780.391V288.088ZM780.391 276.46H792.019V288.088H780.391V276.46ZM768.763 392.739H780.391V404.367H768.763V392.739ZM768.763 381.111H780.391V392.739H768.763V381.111ZM768.763 369.484H780.391V381.111H768.763V369.484ZM768.763 357.856H780.391V369.484H768.763V357.856ZM768.763 346.228H780.391V357.856H768.763V346.228ZM768.763 334.6H780.391V346.228H768.763V334.6ZM768.763 322.972H780.391V334.6H768.763V322.972ZM768.763 311.344H780.391V322.972H768.763V311.344ZM768.763 299.716H780.391V311.344H768.763V299.716ZM768.763 288.088H780.391V299.716H768.763V288.088ZM768.763 264.832H780.391V276.46H768.763V264.832ZM768.763 276.46H780.391V288.088H768.763V276.46ZM757.135 276.46H768.763V288.088H757.135V276.46ZM745.507 288.088H757.135V299.716H745.507V288.088ZM757.135 288.088H768.763V299.716H757.135V288.088ZM745.507 404.367H757.135V415.995H745.507V404.367ZM757.135 404.367H768.763V415.995H757.135V404.367ZM745.507 276.46H757.135V288.088H745.507V276.46ZM815.275 404.367H826.903V415.995H815.275V404.367ZM745.507 415.995H757.135V427.623H745.507V415.995ZM768.763 439.251H780.391V450.879H768.763V439.251ZM757.135 264.832H768.763V276.46H757.135V264.832ZM815.275 264.832H826.903V276.46H815.275V264.832ZM826.903 253.204H838.531V264.832H826.903V253.204ZM826.903 264.832H838.531V276.46H826.903V264.832ZM838.531 264.832H850.158V276.46H838.531V264.832ZM838.531 253.204H850.158V264.832H838.531V253.204ZM850.158 253.204H861.786V264.832H850.158V253.204ZM850.158 264.832H861.786V276.46H850.158V264.832ZM861.786 264.832H873.414V276.46H861.786V264.832ZM861.786 253.204H873.414V264.832H861.786V253.204ZM873.414 264.832H885.042V276.46H873.414V264.832ZM850.158 276.46H861.786V288.088H850.158V276.46ZM838.531 276.46H850.158V288.088H838.531V276.46ZM850.158 288.088H861.786V299.716H850.158V288.088ZM861.786 288.088H873.414V299.716H861.786V288.088ZM873.414 288.088H885.042V299.716H873.414V288.088ZM873.414 276.46H885.042V288.088H873.414V276.46ZM861.786 276.46H873.414V288.088H861.786V276.46ZM780.391 253.204H792.019V264.832H780.391V253.204ZM768.763 253.204H780.391V264.832H768.763V253.204ZM815.275 276.46H826.903V288.088H815.275V276.46ZM803.647 264.832H815.275V276.46H803.647V264.832ZM815.275 253.204H826.903V264.832H815.275V253.204ZM906.758 299.716H918.386V311.344H906.758V299.716ZM918.386 299.716H930.014V311.344H918.386V299.716ZM918.386 311.344H930.014V322.972H918.386V311.344ZM930.014 299.716H941.642V311.344H930.014V299.716ZM895.13 299.716H906.758V311.344H895.13V299.716ZM895.13 311.344H906.758V322.972H895.13V311.344ZM895.13 334.6H906.758V346.228H895.13V334.6ZM895.13 346.228H906.758V357.856H895.13V346.228ZM895.13 357.856H906.758V369.484H895.13V357.856ZM895.13 369.484H906.758V381.111H895.13V369.484ZM895.13 381.111H906.758V392.739H895.13V381.111ZM895.13 392.739H906.758V404.367H895.13V392.739ZM906.758 392.739H918.386V404.367H906.758V392.739ZM918.386 392.739H930.014V404.367H918.386V392.739ZM918.386 381.111H930.014V392.739H918.386V381.111ZM930.014 381.111H941.642V392.739H930.014V381.111ZM930.014 369.484H941.642V381.111H930.014V369.484ZM930.014 346.228H941.642V357.856H930.014V346.228ZM930.014 334.6H941.642V346.228H930.014V334.6ZM930.014 322.972H941.642V334.6H930.014V322.972ZM930.014 311.344H941.642V322.972H930.014V311.344ZM918.386 322.972H930.014V334.6H918.386V322.972ZM918.386 334.6H930.014V346.228H918.386V334.6ZM918.386 346.228H930.014V357.856H918.386V346.228ZM918.386 357.856H930.014V369.484H918.386V357.856ZM918.386 369.484H930.014V381.111H918.386V369.484ZM930.014 357.856H941.642V369.484H930.014V357.856ZM906.758 357.856H918.386V369.484H906.758V357.856ZM906.758 346.228H918.386V357.856H906.758V346.228ZM906.758 334.6H918.386V346.228H906.758V334.6ZM906.758 322.972H918.386V334.6H906.758V322.972ZM906.758 311.344H918.386V322.972H906.758V311.344ZM895.13 322.972H906.758V334.6H895.13V322.972ZM906.758 369.484H918.386V381.111H906.758V369.484ZM906.758 381.111H918.386V392.739H906.758V381.111ZM883.502 415.995H895.13V427.623H883.502V415.995ZM871.874 415.995H883.502V427.623H871.874V415.995ZM871.874 404.367H883.502V415.995H871.874V404.367ZM883.502 404.367H895.13V415.995H883.502V404.367ZM895.13 404.367H906.758V415.995H895.13V404.367ZM895.13 415.995H906.758V427.623H895.13V415.995ZM906.758 415.995H918.386V427.623H906.758V415.995ZM918.386 415.995H930.014V427.623H918.386V415.995ZM930.014 415.995H941.642V427.623H930.014V415.995ZM930.014 404.367H941.642V415.995H930.014V404.367ZM930.014 392.739H941.642V404.367H930.014V392.739ZM918.386 404.367H930.014V415.995H918.386V404.367ZM906.758 404.367H918.386V415.995H906.758V404.367ZM918.386 427.623H930.014V439.251H918.386V427.623ZM918.386 439.251H930.014V450.879H918.386V439.251ZM930.014 439.251H941.642V450.879H930.014V439.251ZM930.014 427.623H941.642V439.251H930.014V427.623ZM941.642 415.995H953.27V427.623H941.642V415.995ZM941.642 404.367H953.27V415.995H941.642V404.367ZM953.27 404.367H964.898V415.995H953.27V404.367ZM953.27 415.995H964.898V427.623H953.27V415.995ZM953.27 427.623H964.898V439.251H953.27V427.623ZM953.27 439.251H964.898V450.879H953.27V439.251ZM941.642 439.251H953.27V450.879H941.642V439.251ZM941.642 427.623H953.27V439.251H941.642V427.623ZM964.898 404.367H976.526V415.995H964.898V404.367ZM976.526 404.367H988.154V415.995H976.526V404.367ZM976.526 415.995H988.154V427.623H976.526V415.995ZM964.898 415.995H976.526V427.623H964.898V415.995ZM988.154 404.367H999.781V415.995H988.154V404.367ZM999.781 404.367H1011.41V415.995H999.781V404.367ZM988.154 415.995H999.781V427.623H988.154V415.995ZM988.154 392.739H999.781V404.367H988.154V392.739ZM988.154 381.111H999.781V392.739H988.154V381.111ZM999.781 381.111H1011.41V392.739H999.781V381.111ZM999.781 392.739H1011.41V404.367H999.781V392.739ZM1011.41 381.111H1023.04V392.739H1011.41V381.111ZM1023.04 369.484H1034.67V381.111H1023.04V369.484ZM1023.04 357.856H1034.67V369.484H1023.04V357.856ZM1023.04 346.228H1034.67V357.856H1023.04V346.228ZM1011.41 346.228H1023.04V357.856H1011.41V346.228ZM999.781 346.228H1011.41V357.856H999.781V346.228ZM999.781 357.856H1011.41V369.484H999.781V357.856ZM988.154 357.856H999.781V369.484H988.154V357.856ZM988.154 369.484H999.781V381.111H988.154V369.484ZM999.781 369.484H1011.41V381.111H999.781V369.484ZM1011.41 369.484H1023.04V381.111H1011.41V369.484ZM1011.41 357.856H1023.04V369.484H1011.41V357.856ZM988.154 346.228H999.781V357.856H988.154V346.228ZM988.154 334.6H999.781V346.228H988.154V334.6ZM999.781 334.6H1011.41V346.228H999.781V334.6ZM999.781 322.972H1011.41V334.6H999.781V322.972ZM1011.41 322.972H1023.04V334.6H1011.41V322.972ZM1023.04 322.972H1034.67V334.6H1023.04V322.972ZM1023.04 334.6H1034.67V346.228H1023.04V334.6ZM1011.41 334.6H1023.04V346.228H1011.41V334.6ZM988.154 322.972H999.781V334.6H988.154V322.972ZM988.154 311.344H999.781V322.972H988.154V311.344ZM999.781 311.344H1011.41V322.972H999.781V311.344ZM999.781 299.716H1011.41V311.344H999.781V299.716ZM1011.41 299.716H1023.04V311.344H1011.41V299.716ZM1023.04 299.716H1034.67V311.344H1023.04V299.716ZM1023.04 311.344H1034.67V322.972H1023.04V311.344ZM1011.41 311.344H1023.04V322.972H1011.41V311.344ZM988.154 299.716H999.781V311.344H988.154V299.716ZM941.642 253.204H953.27V264.832H941.642V253.204ZM941.642 264.832H953.27V276.46H941.642V264.832ZM953.27 264.832H964.898V276.46H953.27V264.832ZM953.27 253.204H964.898V264.832H953.27V253.204ZM930.014 276.46H941.642V288.088H930.014V276.46ZM918.386 276.46H930.014V288.088H918.386V276.46ZM930.014 288.088H941.642V299.716H930.014V288.088ZM918.386 288.088H930.014V299.716H918.386V288.088ZM964.898 253.204H976.526V264.832H964.898V253.204ZM976.526 253.204H988.154V264.832H976.526V253.204ZM976.526 264.832H988.154V276.46H976.526V264.832ZM964.898 264.832H976.526V276.46H964.898V264.832ZM988.154 253.204H999.781V264.832H988.154V253.204ZM999.781 253.204H1011.41V264.832H999.781V253.204ZM999.781 264.832H1011.41V276.46H999.781V264.832ZM988.154 264.832H999.781V276.46H988.154V264.832ZM1034.67 288.088H1046.29V299.716H1034.67V288.088ZM1034.67 276.46H1046.29V288.088H1034.67V276.46ZM1046.29 276.46H1057.92V288.088H1046.29V276.46ZM1046.29 288.088H1057.92V299.716H1046.29V288.088ZM1023.04 276.46H1034.67V288.088H1023.04V276.46ZM1011.41 276.46H1023.04V288.088H1011.41V276.46ZM999.781 276.46H1011.41V288.088H999.781V276.46ZM988.154 276.46H999.781V288.088H988.154V276.46ZM999.781 288.088H1011.41V299.716H999.781V288.088ZM1011.41 288.088H1023.04V299.716H1011.41V288.088ZM1023.04 288.088H1034.67V299.716H1023.04V288.088ZM988.154 288.088H999.781V299.716H988.154V288.088ZM906.758 427.623H918.386V439.251H906.758V427.623ZM1011.41 264.832H1023.04V276.46H1011.41V264.832ZM906.758 288.088H918.386V299.716H906.758V288.088ZM964.898 427.623H976.526V439.251H964.898V427.623ZM1011.41 392.739H1023.04V404.367H1011.41V392.739ZM1023.04 381.111H1034.67V392.739H1023.04V381.111ZM1023.04 392.739H1034.67V404.367H1023.04V392.739ZM1023.04 404.367H1034.67V415.995H1023.04V404.367ZM1011.41 404.367H1023.04V415.995H1011.41V404.367ZM1034.67 404.367H1046.29V415.995H1034.67V404.367ZM1046.29 404.367H1057.92V415.995H1046.29V404.367ZM1046.29 415.995H1057.92V427.623H1046.29V415.995ZM1034.67 415.995H1046.29V427.623H1034.67V415.995ZM1011.41 415.995H1023.04V427.623H1011.41V415.995ZM999.781 415.995H1011.41V427.623H999.781V415.995ZM1023.04 415.995H1034.67V427.623H1023.04V415.995ZM1011.41 427.623H1023.04V439.251H1011.41V427.623ZM999.781 427.623H1011.41V439.251H999.781V427.623ZM1023.04 427.623H1034.67V439.251H1023.04V427.623ZM1034.67 427.623H1046.29V439.251H1034.67V427.623ZM1023.04 439.251H1034.67V450.879H1023.04V439.251ZM999.781 439.251H1011.41V450.879H999.781V439.251ZM1011.41 439.251H1023.04V450.879H1011.41V439.251ZM930.014 264.832H941.642V276.46H930.014V264.832ZM1091.23 439.251H1102.86V450.879H1091.23V439.251ZM1102.86 439.251H1114.49V450.879H1102.86V439.251ZM1079.6 427.623H1091.23V439.251H1079.6V427.623ZM1091.23 427.623H1102.86V439.251H1091.23V427.623ZM1102.86 427.623H1114.49V439.251H1102.86V427.623ZM1114.49 427.623H1126.11V439.251H1114.49V427.623ZM1067.98 415.995H1079.6V427.623H1067.98V415.995ZM1079.6 415.995H1091.23V427.623H1079.6V415.995ZM1079.6 404.367H1091.23V415.995H1079.6V404.367ZM1091.23 404.367H1102.86V415.995H1091.23V404.367ZM1091.23 415.995H1102.86V427.623H1091.23V415.995ZM1102.86 415.995H1114.49V427.623H1102.86V415.995ZM1114.49 415.995H1126.11V427.623H1114.49V415.995ZM1114.49 404.367H1126.11V415.995H1114.49V404.367ZM1126.11 415.995H1137.74V427.623H1126.11V415.995ZM1102.86 404.367H1114.49V415.995H1102.86V404.367ZM1091.23 392.739H1102.86V404.367H1091.23V392.739ZM1102.86 392.739H1114.49V404.367H1102.86V392.739ZM1114.49 392.739H1126.11V404.367H1114.49V392.739ZM1114.49 381.111H1126.11V392.739H1114.49V381.111ZM1102.86 381.111H1114.49V392.739H1102.86V381.111ZM1091.23 381.111H1102.86V392.739H1091.23V381.111ZM1091.23 369.484H1102.86V381.111H1091.23V369.484ZM1091.23 357.856H1102.86V369.484H1091.23V357.856ZM1091.23 346.228H1102.86V357.856H1091.23V346.228ZM1091.23 334.6H1102.86V346.228H1091.23V334.6ZM1091.23 322.972H1102.86V334.6H1091.23V322.972ZM1102.86 322.972H1114.49V334.6H1102.86V322.972ZM1114.49 322.972H1126.11V334.6H1114.49V322.972ZM1114.49 334.6H1126.11V346.228H1114.49V334.6ZM1114.49 346.228H1126.11V357.856H1114.49V346.228ZM1114.49 357.856H1126.11V369.484H1114.49V357.856ZM1102.86 357.856H1114.49V369.484H1102.86V357.856ZM1102.86 369.484H1114.49V381.111H1102.86V369.484ZM1102.86 346.228H1114.49V357.856H1102.86V346.228ZM1102.86 334.6H1114.49V346.228H1102.86V334.6ZM1114.49 369.484H1126.11V381.111H1114.49V369.484ZM1114.49 311.344H1126.11V322.972H1114.49V311.344ZM1114.49 299.716H1126.11V311.344H1114.49V299.716ZM1114.49 288.088H1126.11V299.716H1114.49V288.088ZM1114.49 276.46H1126.11V288.088H1114.49V276.46ZM1114.49 264.832H1126.11V276.46H1114.49V264.832ZM1114.49 253.204H1126.11V264.832H1114.49V253.204ZM1114.49 229.949H1126.11V241.577H1114.49V229.949ZM1114.49 218.321H1126.11V229.949H1114.49V218.321ZM1114.49 206.693H1126.11V218.321H1114.49V206.693ZM1114.49 195.065H1126.11V206.693H1114.49V195.065ZM1114.49 183.437H1126.11V195.065H1114.49V183.437ZM1114.49 171.809H1126.11V183.437H1114.49V171.809ZM1114.49 160.181H1126.11V171.809H1114.49V160.181ZM1091.23 183.437H1102.86V195.065H1091.23V183.437ZM1091.23 195.065H1102.86V206.693H1091.23V195.065ZM1091.23 206.693H1102.86V218.321H1091.23V206.693ZM1091.23 218.321H1102.86V229.949H1091.23V218.321ZM1091.23 229.949H1102.86V241.577H1091.23V229.949ZM1091.23 253.204H1102.86V264.832H1091.23V253.204ZM1091.23 264.832H1102.86V276.46H1091.23V264.832ZM1102.86 276.46H1114.49V288.088H1102.86V276.46ZM1102.86 288.088H1114.49V299.716H1102.86V288.088ZM1102.86 299.716H1114.49V311.344H1102.86V299.716ZM1102.86 311.344H1114.49V322.972H1102.86V311.344ZM1091.23 311.344H1102.86V322.972H1091.23V311.344ZM1091.23 299.716H1102.86V311.344H1091.23V299.716ZM1091.23 288.088H1102.86V299.716H1091.23V288.088ZM1091.23 276.46H1102.86V288.088H1091.23V276.46ZM1102.86 264.832H1114.49V276.46H1102.86V264.832ZM1102.86 253.204H1114.49V264.832H1102.86V253.204ZM1102.86 229.949H1114.49V241.577H1102.86V229.949ZM1102.86 218.321H1114.49V229.949H1102.86V218.321ZM1102.86 206.693H1114.49V218.321H1102.86V206.693ZM1102.86 195.065H1114.49V206.693H1102.86V195.065ZM1102.86 183.437H1114.49V195.065H1102.86V183.437ZM1102.86 171.809H1114.49V183.437H1102.86V171.809ZM1079.6 392.739H1091.23V404.367H1079.6V392.739ZM1079.6 381.111H1091.23V392.739H1079.6V381.111ZM1079.6 369.484H1091.23V381.111H1079.6V369.484ZM1079.6 357.856H1091.23V369.484H1079.6V357.856ZM1079.6 346.228H1091.23V357.856H1079.6V346.228ZM1079.6 334.6H1091.23V346.228H1079.6V334.6ZM1079.6 322.972H1091.23V334.6H1079.6V322.972ZM1079.6 311.344H1091.23V322.972H1079.6V311.344ZM1079.6 299.716H1091.23V311.344H1079.6V299.716ZM1079.6 288.088H1091.23V299.716H1079.6V288.088ZM1079.6 264.832H1091.23V276.46H1079.6V264.832ZM1079.6 229.949H1091.23V241.577H1079.6V229.949ZM1079.6 218.321H1091.23V229.949H1079.6V218.321ZM1079.6 206.693H1091.23V218.321H1079.6V206.693ZM1079.6 253.204H1091.23V264.832H1079.6V253.204ZM1079.6 276.46H1091.23V288.088H1079.6V276.46ZM1079.6 195.065H1091.23V206.693H1079.6V195.065ZM1079.6 241.577H1091.23V253.204H1079.6V241.577ZM1091.23 241.577H1102.86V253.204H1091.23V241.577ZM1102.86 241.577H1114.49V253.204H1102.86V241.577ZM1114.49 241.577H1126.11V253.204H1114.49V241.577ZM1137.74 404.367H1149.37V415.995H1137.74V404.367ZM1056.35 404.367H1067.98V415.995H1056.35V404.367ZM1067.98 404.367H1079.6V415.995H1067.98V404.367ZM1126.11 404.367H1137.74V415.995H1126.11V404.367ZM1079.6 439.251H1091.23V450.879H1079.6V439.251ZM1056.35 415.995H1067.98V427.623H1056.35V415.995Z" fill="#D4D4D4"/>
</svg>